# xmcd
#
# Track frame offsets: 
#        150
#        12490
#        25226
#        35457
#        46905
#        61714
#        73530
#        87762
#        98762
#        109603
#        123187
#        135067
#
# Disc length: 1955 seconds
#
# Revision: 0
# Processed by: cddbd v1.5.2PL0 Copyright (c) Steve Scherf et al.
# Submitted via: ExactAudioCopy v0.99pb5
#
DISCID=8807a10c
DTITLE=Various Artist - Grand Ole Opry Classic Collection: Duets
DYEAR=2011
DGENRE=Country
TTITLE0=Johnny Cash and June Carter Cash - Jackson
TTITLE1=George Jones and Tammy Wynette - We're Gonna Hold On
TTITLE2=Jack Greene and Jeannie Seely - Wish I Didn't Have To Miss You
TTITLE3=Bobby Lord and Patsy Cline - (Remember Me) I'm The One Who Loves
TTITLE3=You
TTITLE4=Ricky Skaggs and Emmylou Harris - Could You Love Me One More Tim
TTITLE4=e
TTITLE5=Loretta Lynn and Conway Twitty - After The Fire Is Gone
TTITLE6=Glen Campbell and Steve Wariner - The Hand That Rocks The Cradle
TTITLE7=The Louvin Brothers - When I Stop Dreaming
TTITLE8=Porter Wagoner and Dolly Parton - The Last Thing On My Mind
TTITLE9=Ernest Tubb and Loretta Lynn - Mr And Mrs Used To Be
TTITLE10=Jim Ed Brown and Helen Cornelius - Fools
TTITLE11=Ronnie Dunn and Rebecca Lynn Howard - If I could Only Win Your 
TTITLE11=Love
EXTD=
EXTT0=
EXTT1=
EXTT2=
EXTT3=
EXTT4=
EXTT5=
EXTT6=
EXTT7=
EXTT8=
EXTT9=
EXTT10=
EXTT11=
PLAYORDER=
